<svg xmlns="http://www.w3.org/2000/svg" viewBox="0 0 20 20" fill="currentColor">
  <path fill="#1877F2" d="M20 10C20 4.477 15.523 0 10 0S0 4.477 0 10c0 4.991 3.657 9.128 8.438 9.879V12.89h-2.54V10h2.54V7.797c0-2.506 1.492-3.89 3.777-3.89 1.094 0 2.238.195 2.238.195v2.46h-1.26c-1.243 0-1.63.771-1.63 1.562V10h2.773l-.443 2.89h-2.33v6.989C16.343 19.129 20 14.99 20 10z" />
  <path fill="white" d="M13.893 12.89l.445-2.89h-2.773v-1.876c0-.79.387-1.562 1.63-1.562h1.26v-2.46s-1.144-.195-2.238-.195c-2.285 0-3.777 1.384-3.777 3.89V10h-2.54v2.89h2.54v6.989C9.317 19.963 9.652 20 10 20c.348 0 .683-.037 1.007-.12V12.89h2.886z" />
</svg> 